# xmcd CD database file
#
# Track frame offsets:
#	150
#	30088
#	73905
#	112158
#	192635
#	220446
#
# Disc length: 3311 seconds
#
# Revision: 0
# Processed by: cddbd v1.5.1PL0 Copyright (c) Steve Scherf et al.
# Submitted via: CDex 1.50
#
DISCID=5c0ced06
DTITLE=McCoy Tyner Quartet - Vienne 2002
DYEAR=2002
DGENRE=Jazz
TTITLE0=Moment's Notice
TTITLE1=Trane Like
TTITLE2=Naima
TTITLE3=African Village
TTITLE4=Jazzin' The Blues
TTITLE5=The Promise
EXTD=YEAR: 2002
EXTT0=
EXTT1=
EXTT2=
EXTT3=
EXTT4=
EXTT5=
PLAYORDER=
